<svg width="48" height="48" viewBox="0 0 48 48" fill="none" xmlns="http://www.w3.org/2000/svg">
  <defs>
    <linearGradient id="g" x1="0" y1="0" x2="48" y2="48" gradientUnits="userSpaceOnUse">
      <stop stop-color="#7C3AED"/>
      <stop offset="0.45" stop-color="#4338CA"/>
      <stop offset="1" stop-color="#0EA5E9"/>
    </linearGradient>
  </defs>
  <rect width="48" height="48" rx="13" fill="url(#g)"/>
  <circle cx="24" cy="10" r="4.5" fill="white" fill-opacity="0.95"/>
  <line x1="24" y1="14.5" x2="24" y2="20" stroke="white" stroke-width="1.5" stroke-opacity="0.55"/>
  <line x1="11" y1="20" x2="37" y2="20" stroke="white" stroke-width="1.5" stroke-opacity="0.55"/>
  <line x1="11" y1="20" x2="11" y2="25" stroke="white" stroke-width="1.5" stroke-opacity="0.55"/>
  <line x1="24" y1="20" x2="24" y2="25" stroke="white" stroke-width="1.5" stroke-opacity="0.55"/>
  <line x1="37" y1="20" x2="37" y2="25" stroke="white" stroke-width="1.5" stroke-opacity="0.55"/>
  <circle cx="11" cy="28.5" r="3.5" fill="white" fill-opacity="0.82"/>
  <circle cx="24" cy="28.5" r="3.5" fill="white" fill-opacity="0.82"/>
  <circle cx="37" cy="28.5" r="3.5" fill="white" fill-opacity="0.82"/>
  <line x1="11" y1="32" x2="11" y2="36.5" stroke="white" stroke-width="1.2" stroke-opacity="0.38"/>
  <line x1="24" y1="32" x2="24" y2="36.5" stroke="white" stroke-width="1.2" stroke-opacity="0.38"/>
  <line x1="37" y1="32" x2="37" y2="36.5" stroke="white" stroke-width="1.2" stroke-opacity="0.38"/>
  <circle cx="11" cy="39" r="2.5" fill="white" fill-opacity="0.45"/>
  <circle cx="24" cy="39" r="2.5" fill="white" fill-opacity="0.45"/>
  <circle cx="37" cy="39" r="2.5" fill="white" fill-opacity="0.45"/>
</svg>
